<svg width="35" height="19" viewBox="0 0 35 19" fill="none" xmlns="http://www.w3.org/2000/svg">
<path d="M26.8047 0.737611L7.65625 19L6.88285 18.2624L26.0313 0L26.8047 0.737611Z" fill="black"/>
<path d="M17.5 2.82395C17.0184 2.82395 16.5499 2.86921 16.0995 2.95482C16.2968 3.39497 16.4062 3.87973 16.4062 4.38866C16.4062 6.40505 14.6923 8.03965 12.5781 8.03965C12.0184 8.03965 11.4867 7.92485 11.0076 7.719C10.9614 7.99378 10.9375 8.27497 10.9375 8.56122C10.9375 9.48219 11.1904 10.3628 11.6432 11.1455L10.8398 11.9078C10.2058 10.9204 9.84375 9.77827 9.84375 8.56122C9.84375 8.06144 9.90481 7.57428 10.0207 7.10529C10.1162 6.71847 10.2491 6.34401 10.4157 5.98501C10.652 6.27565 10.9512 6.51739 11.2939 6.69158C11.6768 6.8862 12.114 6.99651 12.5781 6.99651C14.0883 6.99651 15.3125 5.82894 15.3125 4.38866C15.3125 3.97745 15.2127 3.58847 15.035 3.24255C14.9956 3.16592 14.9524 3.0914 14.9056 3.01922C11.3894 3.54138 8.2031 5.03468 5.72015 6.56817C4.18856 7.51409 2.94816 8.46075 2.0924 9.16953C1.90181 9.32739 1.73056 9.47323 1.57971 9.60436C1.73056 9.73549 1.90181 9.88133 2.0924 10.0392C2.94816 10.748 4.18856 11.6946 5.72015 12.6405C6.61254 13.1917 7.59578 13.7377 8.65254 14.2352L7.83775 15.0123C3.11418 12.714 0 9.60436 0 9.60436C0 9.60436 7.83502 1.78081 17.5 1.78081C18.8058 1.78081 20.0782 1.92363 21.3024 2.17066L20.3679 3.0619C20.3094 3.05232 20.2507 3.043 20.1919 3.03396L19.9719 3.24274C19.2137 2.97334 18.3806 2.82395 17.5 2.82395Z" fill="black"/>
<path d="M14.9821 13.8632C15.7526 14.143 16.6015 14.2985 17.5 14.2985C21.2021 14.2985 24.0625 11.6584 24.0625 8.56122C24.0625 7.62501 23.8011 6.73056 23.3342 5.93817L24.1361 5.17728C24.785 6.17317 25.1562 7.3288 25.1562 8.56122C25.1562 12.3059 21.7284 15.3416 17.5 15.3416C16.2966 15.3416 15.158 15.0957 14.1448 14.6576L14.9821 13.8632Z" fill="black"/>
<path d="M17.5 16.3848C16.0014 16.3848 14.5432 16.1836 13.1512 15.8456L12.2596 16.696C13.9141 17.1488 15.6744 17.4279 17.5 17.4279C27.165 17.4279 35 9.60436 35 9.60436C35 9.60436 31.3449 5.95463 25.9481 3.64079L25.1183 4.43228C26.6477 5.05898 28.0501 5.80864 29.2799 6.56817C30.8114 7.51409 32.0518 8.46075 32.9076 9.16953C33.0982 9.32739 33.2694 9.47323 33.4203 9.60436C33.2694 9.73549 33.0982 9.88133 32.9076 10.0392C32.0518 10.748 30.8114 11.6946 29.2799 12.6405C26.1985 14.5436 22.034 16.3848 17.5 16.3848Z" fill="black"/>
</svg>
